<?xml version="1.0" encoding="iso-8859-1"?>
<!-- Uploaded to: SVG Repo, www.svgrepo.com, Generator: SVG Repo Mixer Tools -->
<svg version="1.1" id="Layer_1" xmlns="http://www.w3.org/2000/svg" xmlns:xlink="http://www.w3.org/1999/xlink" 
	 viewBox="0 0 512 512" xml:space="preserve">
<rect x="10.199" y="107.815" style="fill:#45B5F5;" width="451.213" height="255.98"/>
<rect x="50.584" y="148.204" style="fill:#9CDCFF;" width="451.213" height="255.98"/>
<path style="fill:#FFFFFF;" d="M104.415,362.578c0-37.443,37.865-67.797,84.572-67.797s84.572,30.354,84.572,67.797H104.415z"/>
<circle style="fill:#FFE049;" cx="188.196" cy="227.646" r="39.318"/>
<g>
	<path style="fill:#3B404F;" d="M501.801,138.004h-30.186v-30.186c0-5.633-4.567-10.199-10.199-10.199H10.199
		C4.567,97.619,0,102.185,0,107.818v255.979c0,5.633,4.567,10.199,10.199,10.199h30.186v30.186c0,5.633,4.567,10.199,10.199,10.199
		h451.217c5.632,0,10.199-4.566,10.199-10.199V148.203C512,142.57,507.433,138.004,501.801,138.004z M20.398,353.597V118.018
		h430.818v19.986H50.584c-5.632,0-10.199,4.566-10.199,10.199v205.395H20.398V353.597z M491.602,393.981H60.783V158.402h430.818
		V393.981z"/>
	<path style="fill:#3B404F;" d="M326.678,348.437h123.013c5.632,0,10.199-4.566,10.199-10.199c0-5.633-4.567-10.199-10.199-10.199
		H326.678c-5.632,0-10.199,4.566-10.199,10.199C316.479,343.871,321.045,348.437,326.678,348.437z"/>
	<path style="fill:#3B404F;" d="M326.678,288.329h123.013c5.632,0,10.199-4.566,10.199-10.199c0-5.633-4.567-10.199-10.199-10.199
		H326.678c-5.632,0-10.199,4.566-10.199,10.199C316.479,283.763,321.045,288.329,326.678,288.329z"/>
	<path style="fill:#3B404F;" d="M442.825,228.22h7.373c5.632,0,10.199-4.566,10.199-10.199s-4.567-10.199-10.199-10.199h-7.373
		c-5.632,0-10.199,4.566-10.199,10.199S437.192,228.22,442.825,228.22z"/>
	<path style="fill:#3B404F;" d="M326.678,228.22h80.573c5.632,0,10.199-4.566,10.199-10.199s-4.567-10.199-10.199-10.199h-80.573
		c-5.632,0-10.199,4.566-10.199,10.199S321.045,228.22,326.678,228.22z"/>
	<path style="fill:#3B404F;" d="M104.415,372.777h169.144c5.632,0,10.199-4.566,10.199-10.199c0-43.007-42.514-77.996-94.771-77.996
		s-94.771,34.989-94.771,77.996C94.216,368.211,98.783,372.777,104.415,372.777z M178.088,305.607v19.926
		c0,5.633,4.567,10.199,10.199,10.199s10.199-4.566,10.199-10.199v-20.078c32.194,3.194,58.019,22.383,63.705,46.922h-146.41
		C121.385,328.196,146.548,309.211,178.088,305.607z"/>
	<path style="fill:#3B404F;" d="M188.196,277.161c27.304,0,49.517-22.213,49.517-49.517s-22.213-49.517-49.517-49.517
		s-49.517,22.213-49.517,49.517S160.891,277.161,188.196,277.161z M188.196,198.525c16.056,0,29.119,13.063,29.119,29.119
		s-13.063,29.119-29.119,29.119s-29.119-13.063-29.119-29.119S172.139,198.525,188.196,198.525z"/>
</g>
</svg>